<?xml version="1.0" encoding="UTF-8"?>
<svg xmlns="http://www.w3.org/2000/svg" xmlns:xlink="http://www.w3.org/1999/xlink" width="375pt" height="374.999991pt" viewBox="0 0 375 374.999991" version="1.2">
<defs>
<clipPath id="clip1">
  <path d="M 117 96 L 290.753906 96 L 290.753906 310.71875 L 117 310.71875 Z M 117 96 "/>
</clipPath>
<clipPath id="clip2">
  <path d="M 84.503906 64 L 258 64 L 258 279 L 84.503906 279 Z M 84.503906 64 "/>
</clipPath>
<clipPath id="clip3">
  <path d="M 84.503906 65 L 134 65 L 134 122 L 84.503906 122 Z M 84.503906 65 "/>
</clipPath>
<clipPath id="clip4">
  <path d="M 114.015625 135 L 234.765625 135 L 234.765625 216.042969 L 114.015625 216.042969 Z M 114.015625 135 "/>
</clipPath>
</defs>
<g id="surface1">
<g clip-path="url(#clip1)" clip-rule="nonzero">
<path style=" stroke:none;fill-rule:nonzero;fill:rgb(32.159424%,44.309998%,100%);fill-opacity:1;" d="M 265.636719 96.3125 C 266.433594 96.3125 267.230469 96.351562 268.027344 96.429688 C 268.820312 96.507812 269.609375 96.625 270.390625 96.78125 C 271.175781 96.9375 271.949219 97.128906 272.710938 97.359375 C 273.476562 97.59375 274.226562 97.859375 274.964844 98.164062 C 275.703125 98.46875 276.421875 98.808594 277.125 99.183594 C 277.832031 99.558594 278.515625 99.96875 279.179688 100.410156 C 279.84375 100.855469 280.480469 101.328125 281.097656 101.832031 C 281.714844 102.339844 282.308594 102.871094 282.871094 103.433594 C 283.4375 104 283.972656 104.585938 284.476562 105.203125 C 284.984375 105.820312 285.460938 106.457031 285.902344 107.121094 C 286.347656 107.78125 286.757812 108.464844 287.132812 109.164062 C 287.507812 109.867188 287.851562 110.585938 288.15625 111.324219 C 288.460938 112.058594 288.730469 112.808594 288.960938 113.570312 C 289.191406 114.332031 289.386719 115.101562 289.542969 115.882812 C 289.699219 116.664062 289.816406 117.449219 289.894531 118.242188 C 289.972656 119.035156 290.011719 119.832031 290.011719 120.625 L 290.011719 286.507812 C 290.011719 287.304688 289.972656 288.097656 289.894531 288.890625 C 289.816406 289.683594 289.699219 290.472656 289.542969 291.25 C 289.386719 292.03125 289.191406 292.804688 288.960938 293.566406 C 288.730469 294.328125 288.460938 295.078125 288.15625 295.8125 C 287.851562 296.546875 287.507812 297.265625 287.132812 297.96875 C 286.757812 298.671875 286.347656 299.355469 285.902344 300.015625 C 285.460938 300.679688 284.984375 301.316406 284.476562 301.933594 C 283.972656 302.546875 283.4375 303.136719 282.871094 303.699219 C 282.308594 304.261719 281.714844 304.796875 281.097656 305.300781 C 280.480469 305.808594 279.84375 306.28125 279.179688 306.722656 C 278.515625 307.164062 277.832031 307.574219 277.125 307.949219 C 276.421875 308.324219 275.703125 308.664062 274.964844 308.96875 C 274.226562 309.273438 273.476562 309.542969 272.710938 309.773438 C 271.949219 310.003906 271.175781 310.199219 270.390625 310.355469 C 269.609375 310.507812 268.820312 310.625 268.027344 310.703125 C 267.230469 310.78125 266.433594 310.820312 265.636719 310.820312 L 141.429688 310.820312 C 140.628906 310.824219 139.832031 310.785156 139.035156 310.707031 C 138.238281 310.632812 137.449219 310.515625 136.664062 310.363281 C 135.882812 310.207031 135.105469 310.015625 134.339844 309.785156 C 133.574219 309.554688 132.824219 309.289062 132.085938 308.984375 C 131.34375 308.679688 130.625 308.34375 129.917969 307.96875 C 129.210938 307.59375 128.527344 307.183594 127.863281 306.742188 C 127.195312 306.300781 126.554688 305.824219 125.9375 305.320312 C 125.316406 304.816406 124.726562 304.28125 124.160156 303.71875 C 123.59375 303.15625 123.058594 302.566406 122.550781 301.949219 C 122.042969 301.332031 121.566406 300.695312 121.121094 300.03125 C 120.675781 299.371094 120.265625 298.6875 119.886719 297.984375 C 119.511719 297.28125 119.167969 296.5625 118.863281 295.824219 C 118.554688 295.089844 118.285156 294.339844 118.054688 293.574219 C 117.820312 292.8125 117.628906 292.039062 117.472656 291.257812 C 117.316406 290.476562 117.199219 289.6875 117.121094 288.894531 C 117.042969 288.101562 117.003906 287.304688 117.003906 286.507812 L 117.003906 149.398438 C 117.007812 147.941406 117.289062 146.539062 117.84375 145.191406 C 118.402344 143.847656 119.195312 142.65625 120.222656 141.621094 L 162.425781 99.527344 C 163.457031 98.5 164.652344 97.703125 166 97.148438 C 167.351562 96.589844 168.757812 96.3125 170.21875 96.3125 Z M 265.636719 96.3125 "/>
</g>
<path style=" stroke:none;fill-rule:nonzero;fill:rgb(20.388794%,34.118652%,97.24884%);fill-opacity:1;" d="M 272.082031 97.300781 C 269.976562 96.679688 267.828125 96.351562 265.636719 96.3125 L 170.21875 96.3125 C 168.757812 96.3125 167.351562 96.589844 166 97.148438 C 164.652344 97.703125 163.457031 98.5 162.425781 99.527344 L 120.222656 141.621094 C 119.195312 142.65625 118.402344 143.847656 117.84375 145.191406 C 117.289062 146.539062 117.007812 147.941406 117.003906 149.398438 L 117.003906 286.25 C 117.039062 288.4375 117.367188 290.578125 117.988281 292.675781 L 237.519531 292.675781 C 238.65625 292.675781 239.789062 292.621094 240.917969 292.511719 C 242.046875 292.398438 243.171875 292.234375 244.285156 292.011719 C 245.398438 291.792969 246.496094 291.515625 247.582031 291.1875 C 248.667969 290.859375 249.738281 290.480469 250.785156 290.046875 C 251.835938 289.613281 252.859375 289.128906 253.863281 288.59375 C 254.863281 288.0625 255.835938 287.480469 256.78125 286.851562 C 257.722656 286.222656 258.632812 285.546875 259.511719 284.828125 C 260.390625 284.109375 261.230469 283.351562 262.03125 282.550781 C 262.835938 281.75 263.597656 280.910156 264.316406 280.035156 C 265.035156 279.160156 265.710938 278.253906 266.34375 277.3125 C 266.972656 276.371094 267.558594 275.398438 268.09375 274.402344 C 268.628906 273.402344 269.113281 272.378906 269.546875 271.332031 C 269.980469 270.285156 270.363281 269.222656 270.691406 268.136719 C 271.023438 267.054688 271.296875 265.957031 271.519531 264.847656 C 271.742188 263.734375 271.90625 262.617188 272.019531 261.492188 C 272.128906 260.363281 272.183594 259.234375 272.183594 258.101562 Z M 272.082031 97.300781 "/>
<path style=" stroke:none;fill-rule:nonzero;fill:rgb(79.998779%,84.709167%,89.7995%);fill-opacity:1;" d="M 162.425781 99.527344 C 163.359375 98.597656 164.433594 97.871094 165.644531 97.351562 L 165.644531 121.714844 C 165.644531 122.761719 165.59375 123.808594 165.492188 124.851562 C 165.390625 125.894531 165.234375 126.925781 165.03125 127.953125 C 164.824219 128.980469 164.570312 129.996094 164.265625 131 C 163.960938 132.003906 163.605469 132.988281 163.207031 133.953125 C 162.804688 134.921875 162.355469 135.867188 161.859375 136.792969 C 161.363281 137.714844 160.824219 138.613281 160.242188 139.484375 C 159.660156 140.355469 159.035156 141.195312 158.367188 142.003906 C 157.703125 142.816406 156.996094 143.589844 156.253906 144.332031 C 155.511719 145.070312 154.734375 145.773438 153.921875 146.4375 C 153.109375 147.105469 152.269531 147.726562 151.394531 148.308594 C 150.523438 148.890625 149.621094 149.429688 148.695312 149.921875 C 147.769531 150.417969 146.820312 150.863281 145.851562 151.265625 C 144.882812 151.664062 143.894531 152.019531 142.890625 152.320312 C 141.882812 152.625 140.867188 152.878906 139.835938 153.085938 C 138.804688 153.289062 137.769531 153.441406 136.722656 153.546875 C 135.679688 153.648438 134.628906 153.699219 133.582031 153.699219 L 117.003906 153.699219 L 117.003906 149.398438 C 117.007812 147.941406 117.289062 146.539062 117.84375 145.191406 C 118.402344 143.847656 119.195312 142.65625 120.222656 141.621094 Z M 162.425781 99.527344 "/>
<path style=" stroke:none;fill-rule:nonzero;fill:rgb(32.159424%,44.309998%,100%);fill-opacity:1;" d="M 118.042969 144.835938 C 118.5625 143.625 119.292969 142.554688 120.222656 141.621094 L 162.425781 99.527344 C 163.359375 98.597656 164.433594 97.871094 165.644531 97.351562 L 165.644531 120.472656 C 165.648438 121.269531 165.609375 122.0625 165.535156 122.859375 C 165.457031 123.652344 165.339844 124.4375 165.1875 125.222656 C 165.03125 126.003906 164.839844 126.777344 164.609375 127.539062 C 164.378906 128.304688 164.109375 129.054688 163.804688 129.789062 C 163.5 130.527344 163.160156 131.25 162.785156 131.953125 C 162.410156 132.65625 162 133.339844 161.554688 134.003906 C 161.113281 134.667969 160.636719 135.308594 160.132812 135.921875 C 159.625 136.539062 159.089844 137.132812 158.527344 137.695312 C 157.960938 138.261719 157.371094 138.796875 156.753906 139.300781 C 156.136719 139.808594 155.496094 140.285156 154.828125 140.726562 C 154.164062 141.171875 153.480469 141.582031 152.777344 141.957031 C 152.070312 142.332031 151.351562 142.671875 150.613281 142.980469 C 149.875 143.285156 149.121094 143.554688 148.355469 143.785156 C 147.59375 144.015625 146.816406 144.210938 146.035156 144.367188 C 145.25 144.523438 144.460938 144.640625 143.664062 144.71875 C 142.867188 144.796875 142.070312 144.835938 141.273438 144.835938 Z M 118.042969 144.835938 "/>
<g clip-path="url(#clip2)" clip-rule="nonzero">
<path style=" stroke:none;fill-rule:nonzero;fill:rgb(87.449646%,90.979004%,95.689392%);fill-opacity:1;" d="M 233.3125 64.121094 C 234.109375 64.121094 234.910156 64.160156 235.703125 64.234375 C 236.5 64.3125 237.289062 64.425781 238.074219 64.582031 C 238.859375 64.734375 239.632812 64.925781 240.398438 65.15625 C 241.164062 65.386719 241.914062 65.65625 242.65625 65.957031 C 243.394531 66.261719 244.117188 66.601562 244.820312 66.976562 C 245.527344 67.351562 246.210938 67.761719 246.878906 68.203125 C 247.542969 68.644531 248.183594 69.117188 248.804688 69.621094 C 249.421875 70.128906 250.015625 70.660156 250.578125 71.226562 C 251.144531 71.789062 251.683594 72.378906 252.191406 72.992188 C 252.699219 73.609375 253.175781 74.25 253.617188 74.910156 C 254.0625 75.574219 254.472656 76.257812 254.851562 76.960938 C 255.230469 77.664062 255.570312 78.382812 255.878906 79.117188 C 256.183594 79.855469 256.453125 80.605469 256.683594 81.367188 C 256.917969 82.132812 257.113281 82.902344 257.269531 83.683594 C 257.425781 84.46875 257.542969 85.253906 257.621094 86.046875 C 257.699219 86.84375 257.738281 87.636719 257.738281 88.433594 L 257.738281 254.058594 C 257.738281 254.855469 257.699219 255.652344 257.621094 256.445312 C 257.542969 257.238281 257.425781 258.027344 257.269531 258.808594 C 257.113281 259.589844 256.917969 260.363281 256.683594 261.125 C 256.453125 261.886719 256.183594 262.636719 255.878906 263.375 C 255.570312 264.109375 255.230469 264.832031 254.851562 265.53125 C 254.472656 266.234375 254.0625 266.917969 253.617188 267.582031 C 253.175781 268.242188 252.699219 268.882812 252.191406 269.5 C 251.683594 270.113281 251.144531 270.703125 250.578125 271.269531 C 250.015625 271.832031 249.421875 272.363281 248.804688 272.871094 C 248.183594 273.375 247.542969 273.847656 246.878906 274.289062 C 246.210938 274.734375 245.527344 275.140625 244.820312 275.515625 C 244.117188 275.890625 243.394531 276.230469 242.65625 276.535156 C 241.914062 276.839844 241.164062 277.105469 240.398438 277.335938 C 239.632812 277.566406 238.859375 277.757812 238.074219 277.910156 C 237.289062 278.066406 236.5 278.179688 235.703125 278.257812 C 234.910156 278.335938 234.109375 278.371094 233.3125 278.371094 L 109.101562 278.371094 C 108.304688 278.371094 107.507812 278.332031 106.714844 278.253906 C 105.917969 278.175781 105.128906 278.058594 104.347656 277.902344 C 103.566406 277.746094 102.792969 277.554688 102.027344 277.324219 C 101.261719 277.09375 100.511719 276.824219 99.773438 276.519531 C 99.039062 276.214844 98.316406 275.875 97.613281 275.5 C 96.910156 275.125 96.226562 274.714844 95.5625 274.273438 C 94.898438 273.832031 94.257812 273.355469 93.640625 272.851562 C 93.023438 272.347656 92.433594 271.8125 91.867188 271.25 C 91.304688 270.6875 90.769531 270.097656 90.261719 269.480469 C 89.753906 268.867188 89.28125 268.226562 88.835938 267.566406 C 88.394531 266.902344 87.984375 266.222656 87.605469 265.519531 C 87.230469 264.816406 86.890625 264.097656 86.585938 263.363281 C 86.277344 262.625 86.011719 261.878906 85.777344 261.117188 C 85.546875 260.355469 85.351562 259.582031 85.195312 258.800781 C 85.042969 258.019531 84.925781 257.234375 84.847656 256.441406 C 84.769531 255.648438 84.730469 254.855469 84.730469 254.058594 L 84.730469 117.152344 C 84.742188 115.730469 85.03125 114.363281 85.589844 113.050781 C 86.144531 111.738281 86.933594 110.585938 87.949219 109.585938 L 130.203125 67.335938 C 131.222656 66.304688 132.40625 65.507812 133.75 64.949219 C 135.09375 64.394531 136.492188 64.117188 137.945312 64.121094 Z M 233.3125 64.121094 "/>
</g>
<path style=" stroke:none;fill-rule:nonzero;fill:rgb(79.998779%,84.709167%,89.7995%);fill-opacity:1;" d="M 170.21875 96.3125 C 168.757812 96.3125 167.351562 96.589844 166 97.148438 C 164.652344 97.703125 163.457031 98.5 162.425781 99.527344 L 120.222656 141.621094 C 119.195312 142.65625 118.402344 143.847656 117.84375 145.191406 C 117.289062 146.539062 117.007812 147.941406 117.003906 149.398438 L 117.003906 278.371094 L 233.3125 278.371094 C 234.109375 278.371094 234.910156 278.335938 235.703125 278.257812 C 236.5 278.179688 237.289062 278.066406 238.074219 277.910156 C 238.859375 277.757812 239.632812 277.566406 240.398438 277.335938 C 241.164062 277.105469 241.914062 276.839844 242.65625 276.535156 C 243.394531 276.230469 244.117188 275.890625 244.820312 275.515625 C 245.527344 275.140625 246.210938 274.734375 246.878906 274.289062 C 247.542969 273.847656 248.183594 273.375 248.804688 272.871094 C 249.421875 272.363281 250.015625 271.832031 250.578125 271.269531 C 251.144531 270.703125 251.683594 270.113281 252.191406 269.5 C 252.699219 268.882812 253.175781 268.242188 253.617188 267.582031 C 254.0625 266.917969 254.472656 266.234375 254.851562 265.53125 C 255.230469 264.832031 255.570312 264.109375 255.878906 263.375 C 256.183594 262.636719 256.453125 261.886719 256.683594 261.125 C 256.917969 260.363281 257.113281 259.589844 257.269531 258.808594 C 257.425781 258.027344 257.542969 257.238281 257.621094 256.445312 C 257.699219 255.652344 257.738281 254.855469 257.738281 254.058594 L 257.738281 96.3125 Z M 170.21875 96.3125 "/>
<g clip-path="url(#clip3)" clip-rule="nonzero">
<path style=" stroke:none;fill-rule:nonzero;fill:rgb(79.998779%,84.709167%,89.7995%);fill-opacity:1;" d="M 130.203125 67.335938 C 131.148438 66.410156 132.222656 65.667969 133.425781 65.109375 L 133.425781 89.523438 C 133.425781 90.570312 133.375 91.613281 133.269531 92.65625 C 133.167969 93.699219 133.011719 94.734375 132.808594 95.757812 C 132.601562 96.785156 132.347656 97.800781 132.042969 98.800781 C 131.738281 99.804688 131.386719 100.789062 130.984375 101.753906 C 130.582031 102.722656 130.132812 103.667969 129.636719 104.589844 C 129.140625 105.515625 128.601562 106.410156 128.019531 107.28125 C 127.433594 108.152344 126.808594 108.988281 126.144531 109.796875 C 125.476562 110.609375 124.773438 111.382812 124.03125 112.121094 C 123.285156 112.859375 122.507812 113.5625 121.699219 114.226562 C 120.886719 114.890625 120.042969 115.511719 119.171875 116.09375 C 118.296875 116.671875 117.398438 117.210938 116.472656 117.703125 C 115.542969 118.195312 114.597656 118.640625 113.625 119.039062 C 112.65625 119.441406 111.667969 119.789062 110.664062 120.09375 C 109.660156 120.394531 108.640625 120.648438 107.613281 120.851562 C 106.582031 121.054688 105.546875 121.207031 104.5 121.308594 C 103.457031 121.40625 102.410156 121.457031 101.359375 121.457031 L 84.730469 121.457031 L 84.730469 117.152344 C 84.742188 115.730469 85.03125 114.363281 85.589844 113.050781 C 86.144531 111.738281 86.933594 110.585938 87.949219 109.585938 Z M 130.203125 67.335938 "/>
</g>
<path style=" stroke:none;fill-rule:nonzero;fill:rgb(32.159424%,44.309998%,100%);fill-opacity:1;" d="M 85.769531 112.589844 C 86.304688 111.40625 87.03125 110.351562 87.949219 109.429688 L 130.203125 67.335938 C 131.148438 66.410156 132.222656 65.664062 133.425781 65.109375 L 133.425781 88.28125 C 133.425781 89.078125 133.386719 89.871094 133.308594 90.664062 C 133.230469 91.460938 133.109375 92.246094 132.957031 93.027344 C 132.800781 93.8125 132.605469 94.582031 132.371094 95.347656 C 132.140625 96.109375 131.871094 96.859375 131.5625 97.59375 C 131.257812 98.332031 130.917969 99.050781 130.539062 99.753906 C 130.160156 100.457031 129.75 101.140625 129.304688 101.800781 C 128.863281 102.464844 128.386719 103.105469 127.878906 103.71875 C 127.371094 104.335938 126.832031 104.925781 126.265625 105.488281 C 125.703125 106.050781 125.109375 106.585938 124.492188 107.089844 C 123.871094 107.597656 123.230469 108.070312 122.566406 108.511719 C 121.898438 108.953125 121.214844 109.363281 120.507812 109.738281 C 119.804688 110.113281 119.082031 110.453125 118.34375 110.753906 C 117.601562 111.058594 116.851562 111.328125 116.085938 111.558594 C 115.320312 111.785156 114.546875 111.980469 113.761719 112.132812 C 112.976562 112.289062 112.1875 112.402344 111.390625 112.480469 C 110.59375 112.554688 109.796875 112.59375 109 112.589844 Z M 85.769531 112.589844 "/>
<g clip-path="url(#clip4)" clip-rule="nonzero">
<path style=" stroke:none;fill-rule:nonzero;fill:rgb(32.159424%,44.309998%,100%);fill-opacity:1;" d="M 209.664062 159.722656 C 209.617188 159.214844 209.5625 158.707031 209.480469 158.199219 C 207.617188 146.792969 196.925781 139.066406 185.597656 140.945312 C 181.019531 141.699219 177.046875 143.90625 174.050781 147.015625 C 168.542969 138.902344 158.699219 134.273438 148.425781 135.96875 C 134.296875 138.308594 124.726562 151.730469 127.046875 165.953125 C 127.21875 166.992188 127.453125 168.007812 127.738281 168.992188 C 119.664062 173.078125 114.125 181.484375 114.125 191.199219 C 114.125 204.917969 125.179688 216.042969 138.808594 216.042969 L 167.328125 216.042969 L 167.328125 195.507812 L 157.507812 195.507812 L 174.414062 170.792969 L 191.316406 195.507812 L 181.496094 195.507812 L 181.496094 216.042969 L 209.839844 216.042969 L 209.839844 215.851562 C 223.832031 214.253906 234.703125 202.308594 234.703125 187.804688 C 234.703125 173.230469 223.738281 161.246094 209.664062 159.722656 "/>
</g>
<path style=" stroke:none;fill-rule:nonzero;fill:rgb(100%,100%,100%);fill-opacity:1;" d="M 142.960938 153.601562 C 139.8125 158.109375 135.355469 160.414062 133.003906 158.75 C 130.652344 157.085938 131.296875 152.082031 134.449219 147.574219 C 137.597656 143.066406 142.0625 140.765625 144.40625 142.429688 C 146.757812 144.089844 146.113281 149.097656 142.960938 153.601562 "/>
</g>
</svg>
